<svg xmlns="http://www.w3.org/2000/svg" viewBox="0 0 128 128">
  <defs>
    <linearGradient id="bg" x1="18" y1="10" x2="110" y2="118" gradientUnits="userSpaceOnUse"><stop stop-color="#F59E0B"/><stop offset="1" stop-color="#2563EB"/></linearGradient>
    <radialGradient id="shine" cx="38" cy="28" r="74" gradientUnits="userSpaceOnUse"><stop stop-color="#FFFFFF" stop-opacity="0.78"/><stop offset="0.52" stop-color="#FFFFFF" stop-opacity="0.16"/><stop offset="1" stop-color="#FFFFFF" stop-opacity="0"/></radialGradient>
    <linearGradient id="gold" x1="31" y1="25" x2="96" y2="104" gradientUnits="userSpaceOnUse"><stop stop-color="#FFF7B2"/><stop offset="0.5" stop-color="#FBBF24"/><stop offset="1" stop-color="#B45309"/></linearGradient>
    <linearGradient id="silver" x1="28" y1="22" x2="101" y2="105" gradientUnits="userSpaceOnUse"><stop stop-color="#FFFFFF"/><stop offset="0.55" stop-color="#D8E3F0"/><stop offset="1" stop-color="#7C8EA5"/></linearGradient>
    <linearGradient id="green" x1="21" y1="25" x2="105" y2="105" gradientUnits="userSpaceOnUse"><stop stop-color="#BBF7D0"/><stop offset="0.55" stop-color="#22C55E"/><stop offset="1" stop-color="#166534"/></linearGradient>
    <linearGradient id="warm" x1="25" y1="18" x2="106" y2="112" gradientUnits="userSpaceOnUse"><stop stop-color="#FED7AA"/><stop offset="0.48" stop-color="#FB923C"/><stop offset="1" stop-color="#B91C1C"/></linearGradient>
    <linearGradient id="blue" x1="24" y1="18" x2="106" y2="112" gradientUnits="userSpaceOnUse"><stop stop-color="#BAE6FD"/><stop offset="0.5" stop-color="#38BDF8"/><stop offset="1" stop-color="#1D4ED8"/></linearGradient>
  </defs>
  <circle cx="64" cy="64" r="60" fill="url(#bg)"/>
  <circle cx="64" cy="64" r="60" fill="url(#shine)"/>
  <ellipse cx="64" cy="113" rx="36" ry="7" fill="#111827" opacity="0.16"/>
  <circle cx="64" cy="64" r="52" fill="#FFFFFF" opacity="0.10"/>
  <path d="M35 31h51a10 10 0 0 1 10 10v58H45a10 10 0 0 1-10-10Z" fill="#FDE68A"/><path d="M45 31h51v58H45a10 10 0 0 0-10 10V41a10 10 0 0 1 10-10Z" fill="url(#gold)"/><path d="M51 50h30M51 64h35M51 78h24" stroke="#7C2D12" stroke-width="5" stroke-linecap="round"/><path d="M91 31v58" stroke="#2563EB" stroke-width="8"/>
</svg>
