<svg xmlns="http://www.w3.org/2000/svg" viewBox="0 0 128 128">
  <defs>
    <linearGradient id="bg" x1="18" y1="10" x2="110" y2="118" gradientUnits="userSpaceOnUse"><stop stop-color="#FB7185"/><stop offset="1" stop-color="#312E81"/></linearGradient>
    <radialGradient id="shine" cx="38" cy="28" r="74" gradientUnits="userSpaceOnUse"><stop stop-color="#FFFFFF" stop-opacity="0.78"/><stop offset="0.52" stop-color="#FFFFFF" stop-opacity="0.16"/><stop offset="1" stop-color="#FFFFFF" stop-opacity="0"/></radialGradient>
    <linearGradient id="gold" x1="31" y1="25" x2="96" y2="104" gradientUnits="userSpaceOnUse"><stop stop-color="#FFF7B2"/><stop offset="0.5" stop-color="#FBBF24"/><stop offset="1" stop-color="#B45309"/></linearGradient>
    <linearGradient id="silver" x1="28" y1="22" x2="101" y2="105" gradientUnits="userSpaceOnUse"><stop stop-color="#FFFFFF"/><stop offset="0.55" stop-color="#D8E3F0"/><stop offset="1" stop-color="#7C8EA5"/></linearGradient>
    <linearGradient id="green" x1="21" y1="25" x2="105" y2="105" gradientUnits="userSpaceOnUse"><stop stop-color="#BBF7D0"/><stop offset="0.55" stop-color="#22C55E"/><stop offset="1" stop-color="#166534"/></linearGradient>
    <linearGradient id="warm" x1="25" y1="18" x2="106" y2="112" gradientUnits="userSpaceOnUse"><stop stop-color="#FED7AA"/><stop offset="0.48" stop-color="#FB923C"/><stop offset="1" stop-color="#B91C1C"/></linearGradient>
    <linearGradient id="blue" x1="24" y1="18" x2="106" y2="112" gradientUnits="userSpaceOnUse"><stop stop-color="#BAE6FD"/><stop offset="0.5" stop-color="#38BDF8"/><stop offset="1" stop-color="#1D4ED8"/></linearGradient>
  </defs>
  <circle cx="64" cy="64" r="60" fill="url(#bg)"/>
  <circle cx="64" cy="64" r="60" fill="url(#shine)"/>
  <ellipse cx="64" cy="113" rx="36" ry="7" fill="#111827" opacity="0.16"/>
  <circle cx="64" cy="64" r="52" fill="#FFFFFF" opacity="0.10"/>
  <circle cx="78" cy="42" r="21" fill="#FDE68A"/><path d="M90 31c-15 0-26 11-26 26 0 3 .5 6 1.5 8-11-5-18-16-18-29 0-6 2-12 5-17 7-4 15-6 23-5 6 1 11 3 15 7Z" fill="#312E81" opacity=".95"/><path d="M28 83c12-8 24-8 36 0s24 8 36 0" fill="none" stroke="#FDBA74" stroke-width="7" stroke-linecap="round"/><path d="M33 96h62" stroke="#fff" stroke-width="6" stroke-linecap="round" opacity=".72"/>
</svg>
