<svg xmlns="http://www.w3.org/2000/svg" viewBox="0 0 128 128">
  <defs>
    <linearGradient id="bg" x1="18" y1="10" x2="110" y2="118" gradientUnits="userSpaceOnUse"><stop stop-color="#F59E0B"/><stop offset="1" stop-color="#DC2626"/></linearGradient>
    <radialGradient id="shine" cx="38" cy="28" r="74" gradientUnits="userSpaceOnUse"><stop stop-color="#FFFFFF" stop-opacity="0.78"/><stop offset="0.52" stop-color="#FFFFFF" stop-opacity="0.16"/><stop offset="1" stop-color="#FFFFFF" stop-opacity="0"/></radialGradient>
    <linearGradient id="gold" x1="31" y1="25" x2="96" y2="104" gradientUnits="userSpaceOnUse"><stop stop-color="#FFF7B2"/><stop offset="0.5" stop-color="#FBBF24"/><stop offset="1" stop-color="#B45309"/></linearGradient>
    <linearGradient id="silver" x1="28" y1="22" x2="101" y2="105" gradientUnits="userSpaceOnUse"><stop stop-color="#FFFFFF"/><stop offset="0.55" stop-color="#D8E3F0"/><stop offset="1" stop-color="#7C8EA5"/></linearGradient>
    <linearGradient id="green" x1="21" y1="25" x2="105" y2="105" gradientUnits="userSpaceOnUse"><stop stop-color="#BBF7D0"/><stop offset="0.55" stop-color="#22C55E"/><stop offset="1" stop-color="#166534"/></linearGradient>
    <linearGradient id="warm" x1="25" y1="18" x2="106" y2="112" gradientUnits="userSpaceOnUse"><stop stop-color="#FED7AA"/><stop offset="0.48" stop-color="#FB923C"/><stop offset="1" stop-color="#B91C1C"/></linearGradient>
    <linearGradient id="blue" x1="24" y1="18" x2="106" y2="112" gradientUnits="userSpaceOnUse"><stop stop-color="#BAE6FD"/><stop offset="0.5" stop-color="#38BDF8"/><stop offset="1" stop-color="#1D4ED8"/></linearGradient>
  </defs>
  <circle cx="64" cy="64" r="60" fill="url(#bg)"/>
  <circle cx="64" cy="64" r="60" fill="url(#shine)"/>
  <ellipse cx="64" cy="113" rx="36" ry="7" fill="#111827" opacity="0.16"/>
  <circle cx="64" cy="64" r="52" fill="#FFFFFF" opacity="0.10"/>
  <path d="M64 22c18 0 32 14 32 31 0 13-8 24-19 29v11a7 7 0 0 1-7 7H58a7 7 0 0 1-7-7V82c-11-5-19-16-19-29 0-17 14-31 32-31Z" fill="url(#gold)"/><path d="M52 82h24M54 94h20" stroke="#7C2D12" stroke-width="7" stroke-linecap="round"/><path d="M64 39v22M54 50h20" stroke="#fff" stroke-width="7" stroke-linecap="round" opacity=".86"/>
</svg>
