<?xml version="1.0" encoding="utf-8"?>
<!-- Generator: Adobe Illustrator 16.0.0, SVG Export Plug-In . SVG Version: 6.00 Build 0)  -->
<!DOCTYPE svg PUBLIC "-//W3C//DTD SVG 1.1//EN" "http://www.w3.org/Graphics/SVG/1.1/DTD/svg11.dtd">
<svg version="1.1" id="Layer_1" xmlns="http://www.w3.org/2000/svg" xmlns:xlink="http://www.w3.org/1999/xlink" x="0px" y="0px"
	 width="99.348px" height="72.321px" viewBox="0.327 0.325 99.348 72.321" enable-background="new 0.327 0.325 99.348 72.321"
	 xml:space="preserve">
<path fill="#ED20C6" d="M14.698,17.731c-1.686,2.668-3.82,5.069-5.143,7.956c-0.227,0.492-0.428,1-0.61,1.51
	c-0.182,0.512-0.345,1.028-0.497,1.548c-0.151,0.519-0.291,1.041-0.426,1.564c-0.136,0.526-0.269,1.049-0.405,1.572
	c-0.136,0.523-0.277,1.044-0.43,1.564c-0.153,0.52-0.318,1.037-0.502,1.546c-0.025,0.071-0.044,0.168-0.089,0.229
	c-0.014,0.018-0.031,0.032-0.048,0.045c-0.112,0.081-0.254,0.138-0.394,0.138c-0.128,0-0.258-0.058-0.361-0.134
	c-0.02-0.012-0.037-0.027-0.049-0.047c-0.032-0.045-0.036-0.112-0.048-0.164c-0.015-0.059-0.026-0.119-0.04-0.179
	c-0.024-0.121-0.048-0.243-0.066-0.367c-0.041-0.245-0.067-0.493-0.086-0.743c-0.036-0.502-0.03-1.009,0.012-1.512
	c0.041-0.512,0.117-1.019,0.218-1.524c0.103-0.507,0.233-1.013,0.384-1.509c0.148-0.498,0.318-0.987,0.504-1.471
	c0.182-0.475,0.375-0.942,0.583-1.406c0.135-0.305,0.276-0.607,0.419-0.908c1.449-3.017,3.414-5.825,6.206-7.728
	C14.069,17.547,14.457,17.573,14.698,17.731 M87.916,19.96c0.318,0.813,0.957,1.588,1.429,2.316
	c0.481,0.744,0.864,1.526,1.254,2.322c0.833,1.695,1.482,3.454,1.878,5.303c0.891,4.125,0.21,8.317,0.653,12.444
	c0.012,0.086,0.48,0.038,0.744-0.392c2.207-3.627,2.191-8.251,1.173-12.295c-0.879-3.5-3.613-7.213-6.573-9.701
	C88.296,19.801,87.916,19.801,87.916,19.96 M5.85,41.417c0.063,0.056,0.136,0.096,0.217,0.113c0.182,0.04,0.404,0.064,0.578-0.02
	c0.391-0.196,0.391-0.735,0.365-1.108c-0.03-0.411-0.076-0.821-0.171-1.227c-0.036-0.149-0.079-0.306-0.13-0.457
	c-0.041-0.114-0.111-0.246-0.23-0.3c-0.122-0.054-0.279-0.046-0.409-0.03c-0.137,0.017-0.272,0.061-0.388,0.138
	c-0.297,0.202-0.35,0.647-0.379,0.977c-0.034,0.386,0.008,0.779,0.125,1.149c0.03,0.092,0.063,0.184,0.102,0.273
	C5.6,41.089,5.703,41.291,5.85,41.417"/>
</svg>
