<?xml version="1.0" encoding="utf-8"?>
<!--
  ~ (c) 2016 DesignPro, Inc.  All rights reserved.
  -->

<svg version="1.1" id="Layer_1" xmlns="http://www.w3.org/2000/svg" xmlns:xlink="http://www.w3.org/1999/xlink" x="0px" y="0px"
	 width="26px" height="37px" viewBox="0 0 26 37" enable-background="new 0 0 26 37" xml:space="preserve">
<path d="M2.638,23.879c-0.506,0.441-0.899,0.842-1.152,1.186c-0.596,0.811-1.01,1.705-1.246,2.641
	c-0.477,1.895-0.235,3.924,0.676,5.629c0.439,0.824,1.032,1.567,1.773,2.183c1.522,1.266,3.387,1.755,5.166,1.523
	c1.779-0.233,3.476-1.186,4.667-2.806c0.987-1.346,2.257-5.147,3.404-9.141c1.588-5.516,2.941-11.397,2.998-11.646
	c0.001-0.005-0.001-0.006-0.006-0.004c-0.228,0.127-5.558,3.104-10.315,6.165C6.243,21.123,4.026,22.658,2.638,23.879z
	 M6.645,15.142c1.099,0.914,2.474,1.192,3.735,0.885c0.961-0.232,1.856-0.807,2.514-1.697c0.578-0.787,1.313-2.905,1.994-5.221
	c0.479-1.624,0.934-3.349,1.297-4.777c0.447-1.775,0.75-3.095,0.776-3.209c0.001-0.005-0.001-0.006-0.007-0.003
	c-0.14,0.078-1.948,1.089-4.081,2.377c-1.467,0.886-3.085,1.9-4.414,2.833C7.25,7.176,6.279,7.953,5.877,8.5
	c-0.96,1.307-1.174,2.981-0.705,4.443C5.443,13.785,5.938,14.553,6.645,15.142z M23.888,1.31c-0.691,0.408-1.484,0.885-2.271,1.381
	c-1.747,1.1-3.472,2.286-3.983,2.979c-0.57,0.777-0.789,1.727-0.688,2.635c0.104,0.907,0.531,1.771,1.264,2.38
	c1.073,0.893,2.494,0.979,3.625,0.354c0.412-0.229,0.785-0.552,1.09-0.966c0.551-0.747,1.281-3.079,1.893-5.302
	c0.639-2.325,1.15-4.529,1.184-4.671C26.002,0.095,26,0.094,25.995,0.096C25.911,0.143,25.04,0.628,23.888,1.31z"/>
</svg>
