<?xml version="1.0" encoding="utf-8"?>
<!--
  ~ (c) 2016 DesignPro, Inc.  All rights reserved.
  -->

<svg version="1.1" id="Layer_1" xmlns="http://www.w3.org/2000/svg" xmlns:xlink="http://www.w3.org/1999/xlink" x="0px" y="0px"
	 width="38px" height="34px" viewBox="0 0 38 34" enable-background="new 0 0 38 34" xml:space="preserve">
<path d="M19.601,33.462c-0.201,0.18-0.401,0.358-0.602,0.538C9.499,25.498,0,17,0,8.5C0,3.809,4.255,0,9.5,0
	c4.728,0,7.101,2.105,9.463,6.313c0.005,0.01,0.01,0.018,0.016,0.027c0.004,0.005,0.008,0.012,0.009,0.018
	c0.005,0.007,0.008,0.012,0.011,0.018c0.005-0.008,0.009-0.015,0.015-0.022c0.002-0.005,0.006-0.011,0.008-0.016
	c0.004-0.007,0.007-0.014,0.012-0.02c2.365-4.209,4.738-6.316,9.468-6.316c5.245,0,9.499,3.809,9.499,8.5
	C37.998,16.822,28.896,25.142,19.601,33.462"/>
</svg>
