<svg xmlns="http://www.w3.org/2000/svg" viewBox="0 0 1600 220">
  <defs>
    <linearGradient id="bg" x1="0" y1="0" x2="1" y2="0">
      <stop offset="0" stop-color="#7f1010"/>
      <stop offset="0.65" stop-color="#991515"/>
      <stop offset="1" stop-color="#610909"/>
    </linearGradient>
    <linearGradient id="gold" x1="0" y1="0" x2="1" y2="1">
      <stop offset="0" stop-color="#fff3a6"/>
      <stop offset="0.35" stop-color="#f4bf3f"/>
      <stop offset="0.7" stop-color="#c98613"/>
      <stop offset="1" stop-color="#fff0a1"/>
    </linearGradient>
    <linearGradient id="whitePanel" x1="0" y1="0" x2="0" y2="1">
      <stop offset="0" stop-color="#ffffff"/>
      <stop offset="1" stop-color="#f3efe9"/>
    </linearGradient>
    <filter id="shadow" x="-10%" y="-20%" width="120%" height="160%">
      <feDropShadow dx="0" dy="8" stdDeviation="8" flood-color="#000" flood-opacity="0.25"/>
    </filter>
  </defs>
  <rect x="8" y="8" width="1584" height="204" rx="34" fill="url(#bg)" stroke="url(#gold)" stroke-width="8" filter="url(#shadow)"/>
  <path d="M90 14h80l-30 94 30 96H90c32-32 40-63 40-96s-8-64-40-94z" fill="url(#gold)" opacity="0.98"/>
  <path d="M138 14h24l-32 94 32 96h-24l-32-96z" fill="#8f4d00" opacity="0.55"/>
  <path d="M130 20h920c34 0 58 18 76 44l50 72-50 68c-18 24-42 0-76 0H130c22-22 34-54 34-92 0-36-12-68-34-92z" fill="url(#whitePanel)" stroke="url(#gold)" stroke-width="4"/>
  <circle cx="1118" cy="110" r="44" fill="#fff" stroke="url(#gold)" stroke-width="4"/>
  <path d="M1096 90c6-6 12-10 18-2l14 20c3 5 0 9-4 12l-8 5c9 12 18 21 30 30l5-8c3-4 7-7 12-4l20 14c8 6 4 12-2 18-10 10-24 12-40 6-22-9-53-40-62-62-6-16-4-30 7-39z" fill="#991515"/>
</svg>
