<svg xmlns="http://www.w3.org/2000/svg" viewBox="0 0 1600 220">
  <defs>
    <linearGradient id="bg" x1="0" y1="0" x2="1" y2="0">
      <stop offset="0" stop-color="#07551f"/>
      <stop offset="0.6" stop-color="#0b6426"/>
      <stop offset="1" stop-color="#064417"/>
    </linearGradient>
    <linearGradient id="gold" x1="0" y1="0" x2="1" y2="1">
      <stop offset="0" stop-color="#fff08e"/>
      <stop offset="0.45" stop-color="#facc15"/>
      <stop offset="1" stop-color="#ca8a04"/>
    </linearGradient>
    <filter id="shadow" x="-10%" y="-20%" width="120%" height="160%"><feDropShadow dx="0" dy="8" stdDeviation="8" flood-color="#000" flood-opacity="0.23"/></filter>
  </defs>
  <rect x="8" y="8" width="1584" height="204" rx="18" fill="url(#bg)" filter="url(#shadow)"/>
  <path d="M0 0h150l-56 110 56 110H0z" fill="#08421b"/>
  <path d="M38 0h24l-56 110 56 110H38l-56-110z" fill="url(#gold)"/>
  <path d="M1544 0h56v220h-56l56-110z" fill="#08421b"/>
  <path d="M1538 0h18l-56 110 56 110h-18l-56-110z" fill="url(#gold)"/>
  <line x1="970" y1="36" x2="970" y2="184" stroke="#ffffff" stroke-width="2" opacity="0.75"/>
  <circle cx="1072" cy="110" r="46" fill="#fff" stroke="#67d58c" stroke-width="5"/>
  <path d="M1050 90c6-6 12-10 18-2l14 20c3 5 0 9-4 12l-8 5c9 12 18 21 30 30l5-8c3-4 7-7 12-4l20 14c8 6 4 12-2 18-10 10-24 12-40 6-22-9-53-40-62-62-6-16-4-30 7-39z" fill="#0b6426"/>
</svg>
